<?xml version="1.0" encoding="UTF-8"?>
<svg width="23px" height="11px" viewBox="0 0 23 11" version="1.1" xmlns="http://www.w3.org/2000/svg" xmlns:xlink="http://www.w3.org/1999/xlink">
    <!-- Generator: Sketch 47.1 (45422) - http://www.bohemiancoding.com/sketch -->
    <title>Amber</title>
    <desc>Created with Sketch.</desc>
    <defs></defs>
    <g id="Product-Details-Page" stroke="none" stroke-width="1" fill="none" fill-rule="evenodd">
        <g id="Product-Details-Page---Desktop---Out-of-stock" transform="translate(-1142.000000, -380.000000)" fill="#ffffff">
            <g id="Amber" transform="translate(1142.000000, 380.000000)">
                <path d="M1.41431381,7.59392391 L1.40316871,7.56309355 L1.10467657,7.56309355 L1.09287587,7.59233948 L0.0291083916,10.1049147 L0,10.1713287 L0.334484266,10.1713287 L0.346547203,10.1425449 L0.765537587,9.1364321 L1.63669143,9.1364321 L1.99287587,10.1400362 L2.00402098,10.1713287 L2.36486014,10.1713287 L2.34053759,10.1069612 L1.41431381,7.59392391 Z M1.14230769,8.20894665 L1.21966783,8.01544819 L1.28902972,8.20690009 C1.28948864,8.20736222 1.46131993,8.68493569 1.52484703,8.86179764 L0.878758741,8.86179764 L1.14230769,8.20894665 L1.14230769,8.20894665 Z" id="Fill-1"></path>
                <path d="M7.9520979,7.61069245 L7.95170455,7.5628955 L7.45056818,7.5628955 L7.43870192,7.59465011 L6.80264423,9.3739645 L6.73872378,9.56138931 C6.72574301,9.59921757 6.71322115,9.63460316 6.69820804,9.67916524 C6.66890297,9.58363734 6.64582605,9.51563891 6.61094843,9.41152868 L6.59619755,9.36762678 L5.97023601,7.59465011 L5.95948427,7.5628955 L5.46175699,7.5628955 L5.46083916,7.6097682 L5.40045892,10.1227395 L5.39954108,10.1711966 L5.70714598,10.1711966 L5.70826049,10.1247861 L5.75054633,7.9819111 L5.75054633,7.97742188 C5.80758304,8.13560076 6.53424388,10.1399042 6.53424388,10.1399042 L6.5458479,10.1711966 L6.81719843,10.1711966 L6.82906469,10.1399042 L7.59932255,8.01868307 L7.62502185,7.94969436 L7.62731643,7.94434691 L7.62731643,7.99544477 L7.65504808,10.124588 L7.65616259,10.1711966 L7.98120629,10.1711966 L7.98074738,10.1232016 L7.9520979,7.61069245" id="Fill-3"></path>
                <path d="M12.699847,8.7462003 C12.8864292,8.61330627 12.9774257,8.43776468 12.9774257,8.21270967 C12.9774257,8.01379774 12.9011801,7.83132427 12.7727491,7.72364908 C12.6076705,7.57880581 12.3940122,7.57002543 12.2228365,7.56348966 L12.2177229,7.56302753 L11.4434659,7.56302753 L11.4434659,10.1713287 L12.0259615,10.1713287 C12.4244318,10.1679618 12.6873252,10.1659152 12.8915428,10.0091227 C12.9711976,9.94917844 13.1577797,9.77231649 13.1577797,9.42585457 C13.1577797,9.18752995 13.0743226,8.8856301 12.699847,8.7462003 M12.0606425,8.65608587 L11.7689685,8.65608587 L11.7689685,7.84822485 L12.0277972,7.84822485 C12.3004589,7.85159176 12.3577579,7.85225194 12.4324956,7.87997946 C12.6228802,7.95273118 12.6450393,8.12081275 12.6450393,8.24089931 C12.6450393,8.39544721 12.5826267,8.52477627 12.4774694,8.58736124 C12.3743444,8.65021028 12.2219843,8.65608587 12.0606425,8.65608587 M12.6881774,9.78651034 C12.566958,9.87933151 12.3803759,9.88362267 12.2573208,9.88652746 L11.7689685,9.88652746 L11.7689685,8.94735684 L12.0354021,8.94735684 C12.4244318,8.94735684 12.6387456,8.94735684 12.7662587,9.1489755 C12.8105769,9.22133112 12.832736,9.31302998 12.832736,9.42994767 C12.832736,9.58581593 12.7814685,9.71356057 12.6881774,9.78651034" id="Fill-4"></path>
                <polyline id="Fill-5" points="16.7240822 9.88659348 16.7240822 8.95818377 17.7102273 8.95818377 17.7102273 8.67325053 16.7240822 8.67325053 16.7240822 7.84822485 17.8019449 7.84822485 17.8019449 7.56302753 16.3844843 7.56302753 16.3844843 10.1713287 17.8938593 10.1713287 17.8938593 9.88659348 16.7240822 9.88659348"></polyline>
                <path d="M22.9549825,10.0939557 C22.8686407,9.98403589 22.8288462,9.87952956 22.752076,9.56409604 L22.7086757,9.40915204 C22.6301355,9.13768644 22.5831949,9.03040735 22.4194274,8.918441 C22.7720061,8.7627708 22.7923295,8.34692405 22.7923295,8.25839405 C22.7923295,8.05228618 22.7211976,7.86373906 22.597028,7.7436525 C22.4078234,7.57266615 22.1274913,7.56632843 21.9925699,7.56296151 L21.1272509,7.56296151 L21.1272509,10.1712627 L21.448951,10.1712627 L21.448951,9.04684581 L21.7545236,9.04684581 C22.2350743,9.04374297 22.3243663,9.14686293 22.4259178,9.55868258 L22.4539117,9.68576703 C22.5223558,10.0052276 22.5677229,10.0759328 22.6337413,10.1545601 L22.6478365,10.1712627 L23.0165428,10.1712627 L22.9549825,10.0939557 Z M22.4596809,8.30526676 C22.4596809,8.70989046 22.1715472,8.73286469 22.0332823,8.7443518 C21.93691,8.75128368 21.840472,8.75128368 21.7476399,8.75128368 L21.448951,8.75128368 L21.448951,7.84815883 L21.7937281,7.84815883 C22.0755682,7.85152575 22.1731206,7.85535479 22.2545455,7.89298499 C22.4596809,7.9937283 22.4596809,8.22776175 22.4596809,8.30526676 L22.4596809,8.30526676 Z" id="Fill-6"></path>
                <polyline id="Fill-8" points="22.8416958 1.39972859 22.4550918 1.39972859 22.4550918 1.11631376 22.8416958 1.11631376 22.8416958 0.791241626 22.1325393 0.791241626 22.1325393 1.39972859 21.7866477 1.39972859 21.7866477 1.72460267 22.8416958 1.72460267 22.8416958 1.39972859"></polyline>
                <polygon id="Fill-9" points="22.1419799 4.94779451 22.4645979 4.94779451 22.4645979 2.0968776 22.1419799 2.0968776"></polygon>
                <path d="M17.9705638,4.69844491 L10.421132,4.69844491 L10.421132,3.64928847 L10.0975962,3.64928847 L10.0975962,4.69844491 L1.80045892,4.69844491 L1.80045892,3.72250232 L1.47764423,3.72250232 L1.47764423,4.87979608 L1.47921766,4.88989682 C1.4794799,4.89491418 1.53428759,5.43507262 1.20091783,5.81064844 C0.976770105,6.06230867 0.623076923,6.19025136 0.149213287,6.19025136 L0.149213287,6.51552154 C0.720629371,6.51552154 1.15594406,6.34994865 1.44388112,6.02467847 C1.74591346,5.68290381 1.80072115,5.25642819 1.80537587,5.02331899 L17.970826,5.02331899 C18.0473339,5.45923517 18.4249563,5.79104113 18.8795455,5.79104113 C19.3887456,5.79104113 19.8026224,5.37407208 19.8026224,4.86065089 C19.8026224,4.34788987 19.3887456,3.93065676 18.8795455,3.93065676 C18.4247596,3.93065676 18.0473339,4.26299086 17.9705638,4.69844491 Z M18.8795455,5.465969 C18.548208,5.465969 18.2784309,5.19430535 18.2784309,4.86065089 C18.2784309,4.52745856 18.548208,4.25599296 18.8795455,4.25599296 C19.2102273,4.25599296 19.4800044,4.52745856 19.4800044,4.86065089 C19.4800044,5.19430535 19.2102273,5.465969 18.8795455,5.465969" id="Fill-10"></path>
                <polygon id="Fill-11" points="9.89586976 5.52743166 10.2184222 5.52743166 10.2184222 5.23299183 9.89586976 5.23299183"></polygon>
            </g>
        </g>
    </g>
</svg>
