<svg xmlns="http://www.w3.org/2000/svg" viewBox="0 0 136 40">
  <defs>
    <linearGradient id="google-a" x1="61.03%" x2="26.46%" y1="4.95%" y2="71.93%">
      <stop offset="0%" stop-color="#00A0FF"></stop>
      <stop offset=".66%" stop-color="#00A1FF"></stop>
      <stop offset="26.01%" stop-color="#00BEFF"></stop>
      <stop offset="51.22%" stop-color="#00D2FF"></stop>
      <stop offset="76.04%" stop-color="#00DFFF"></stop>
      <stop offset="100%" stop-color="#00E3FF"></stop>
    </linearGradient>
    <linearGradient id="google-b" x1="107.63%" x2="-130.55%" y1="50%" y2="50%">
      <stop offset="0%" stop-color="#FFE000"></stop>
      <stop offset="40.87%" stop-color="#FFBD00"></stop>
      <stop offset="77.54%" stop-color="orange"></stop>
      <stop offset="100%" stop-color="#FF9C00"></stop>
    </linearGradient>
    <linearGradient id="google-c" x1="86.24%" x2="-50.13%" y1="30.9%" y2="136.02%">
      <stop offset="0%" stop-color="#FF3A44"></stop>
      <stop offset="100%" stop-color="#C31162"></stop>
    </linearGradient>
    <linearGradient id="google-d" x1="-18.81%" x2="42.08%" y1="-11.83%" y2="35.09%">
      <stop offset="0%" stop-color="#32A071"></stop>
      <stop offset="6.85%" stop-color="#2DA771"></stop>
      <stop offset="47.62%" stop-color="#15CF74"></stop>
      <stop offset="80.09%" stop-color="#06E775"></stop>
      <stop offset="100%" stop-color="#00F076"></stop>
    </linearGradient>
  </defs>
  <path fill="#fff" stroke="#000" d="M130.78.5c1.3 0 2.47.52 3.33 1.36a4.6 4.6 0 011.39 3.3h0v29.68c0 1.29-.53 2.45-1.39 3.3a4.74 4.74 0 01-3.33 1.36h0H5.22c-1.3 0-2.47-.52-3.33-1.36a4.6 4.6 0 01-1.39-3.3h0V5.16c0-1.29.53-2.45 1.39-3.3A4.74 4.74 0 015.22.5h0z"></path>
  <path fill="#000" d="M70.41 13.23c-.9 0-1.67-.31-2.27-.94a3.2 3.2 0 01-.92-2.3c0-.9.31-1.67.92-2.28.6-.63 1.36-.94 2.27-.94A3.2 3.2 0 0173.6 10a3.2 3.2 0 01-3.19 3.23zm-26.93 0c-.89 0-1.66-.31-2.29-.93a3.12 3.12 0 01-.94-2.3c0-.92.32-1.7.94-2.3a3.12 3.12 0 012.29-.93c.44 0 .86.09 1.27.26.4.17.73.4.97.7l.06.07-.68.66-.07-.08c-.38-.45-.89-.68-1.56-.68a2.23 2.23 0 00-2.22 2.3 2.23 2.23 0 002.22 2.3c.64 0 1.18-.21 1.6-.64.25-.25.4-.6.46-1.04h-2.17V9.7h3.1l.01.09a2.8 2.8 0 01-.73 2.54c-.58.6-1.34.91-2.26.91zm35.8-.13h-.95l-2.92-4.68.02.84v3.84h-.95V6.9h1.09l.03.05 2.75 4.4-.03-.83V6.9h.97v6.2zm-16.05 0h-.96V7.83h-1.68V6.9h4.32v.93h-1.68v5.27zm-3.43 0h-.96V6.9h.96v6.2zm-5.42 0h-.97V7.83h-1.68V6.9h4.32v.93h-1.67v5.27zm-3.26-.01h-3.7V6.9h3.7v.93H48.4v1.7h2.47v.93h-2.47v1.7h2.73v.93zm17.73-1.44c.43.43.95.65 1.56.65.63 0 1.14-.21 1.57-.65.42-.42.63-.98.63-1.65 0-.67-.21-1.23-.63-1.65a2.14 2.14 0 00-1.57-.65c-.62 0-1.13.21-1.56.65-.42.42-.64.98-.64 1.65 0 .67.22 1.23.64 1.65z"></path>
  <path fill="#000" d="M67.13 21.76A4.19 4.19 0 0062.87 26a4.2 4.2 0 004.26 4.25 4.2 4.2 0 004.27-4.25 4.19 4.19 0 00-4.27-4.25zm0 6.82c-1.29 0-2.4-1.07-2.4-2.58 0-1.53 1.12-2.58 2.4-2.58 1.3 0 2.4 1.05 2.4 2.58 0 1.52-1.1 2.58-2.4 2.58zm-9.3-6.82A4.19 4.19 0 0053.55 26a4.2 4.2 0 004.26 4.25 4.2 4.2 0 004.27-4.25 4.19 4.19 0 00-4.27-4.25zm0 6.82c-1.3 0-2.4-1.07-2.4-2.58 0-1.53 1.1-2.58 2.4-2.58 1.28 0 2.4 1.05 2.4 2.58 0 1.52-1.12 2.58-2.4 2.58zm-11.08-5.53v1.8h4.32a3.8 3.8 0 01-.98 2.27 4.41 4.41 0 01-3.33 1.32 4.74 4.74 0 01-4.74-4.8 4.74 4.74 0 017.99-3.5l1.28-1.28a6.28 6.28 0 00-4.52-1.83 6.7 6.7 0 00-6.7 6.6c0 3.65 3.05 6.6 6.7 6.6 1.96 0 3.44-.64 4.6-1.85a5.97 5.97 0 001.57-4.22c0-.42-.03-.8-.1-1.13h-6.1v.02zm45.3 1.4c-.35-.95-1.43-2.7-3.64-2.7-2.19 0-4 1.72-4 4.25 0 2.39 1.8 4.25 4.21 4.25a4.22 4.22 0 003.55-1.88l-1.45-.97a2.42 2.42 0 01-2.09 1.18c-.95 0-1.62-.44-2.06-1.3l5.68-2.35-.2-.47zm-5.8 1.43a2.34 2.34 0 012.23-2.48c.74 0 1.36.37 1.57.9l-3.8 1.58zM81.63 30h1.87V17.5h-1.87V30zm-3.06-7.3h-.07a2.95 2.95 0 00-2.25-.95A4.23 4.23 0 0072.18 26a4.2 4.2 0 004.07 4.24c1.01 0 1.83-.46 2.25-.97h.07v.61c0 1.62-.87 2.5-2.27 2.5a2.36 2.36 0 01-2.15-1.51l-1.62.68a4.06 4.06 0 003.77 2.5c2.19 0 4.04-1.28 4.04-4.43V22h-1.76v.7h-.01zm-2.15 5.88c-1.29 0-2.37-1.08-2.37-2.57 0-1.5 1.08-2.59 2.37-2.59 1.28 0 2.27 1.1 2.27 2.6.01 1.48-.99 2.56-2.27 2.56zM100.8 17.5h-4.47V30h1.87v-4.73h2.6c2.07 0 4.1-1.5 4.1-3.88s-2.02-3.89-4.1-3.89zm.06 6.02H98.2v-4.29h2.66c1.4 0 2.18 1.16 2.18 2.15 0 .98-.8 2.14-2.18 2.14zm11.53-1.79c-1.36 0-2.76.6-3.34 1.91l1.66.7c.36-.7 1.01-.93 1.7-.93.97 0 1.95.58 1.97 1.61v.13a4.18 4.18 0 00-1.95-.48c-1.78 0-3.6.98-3.6 2.81 0 1.68 1.47 2.76 3.1 2.76 1.26 0 1.95-.57 2.38-1.22h.07v.97h1.8v-4.8c0-2.22-1.66-3.46-3.8-3.46zm-.24 6.85c-.6 0-1.46-.3-1.46-1.07 0-.97 1.07-1.33 1.98-1.33.82 0 1.2.17 1.7.42a2.25 2.25 0 01-2.22 1.98zm10.6-6.58l-2.15 5.42h-.07L118.31 22h-2l3.33 7.58-1.9 4.21h1.94L124.81 22h-2.06zm-16.82 8h1.87V17.5h-1.87V30z"></path>
  <path fill="url(#google-a)" d="M8.43 6.53c-.29.32-.45.8-.45 1.42v22.1c0 .63.16 1.1.46 1.4l.08.07 12.39-12.39v-.27L8.51 6.46l-.08.07z" transform="translate(1 1)"></path>
  <path fill="url(#google-b)" d="M25.03 23.28l-4.13-4.14v-.28l4.13-4.14.1.06L30 17.56c1.4.78 1.4 2.09 0 2.88l-4.89 2.78-.09.06z" transform="translate(1 1)"></path>
  <path fill="url(#google-c)" d="M25.12 23.22L20.9 19 8.43 31.47c.46.49 1.23.54 2.08.06l14.61-8.3" transform="translate(1 1)"></path>
  <path fill="url(#google-d)" d="M25.12 14.78l-14.6-8.3c-.86-.49-1.63-.42-2.09.07L20.9 19l4.22-4.22z" transform="translate(1 1)"></path>
</svg>